# xmcd
#
# Track frame offsets:
#	150
#	17765
#	44875
#	60901
#	80023
#	102630
#	125252
#	151546
#	170481
#	192822
#
# Disc length: 2824 seconds
#
# Revision: 0
# Processed by: cddbd v1.5.2PL0 Copyright (c) Steve Scherf et al.
# Submitted via: dBpowerAMP V4.0
#
DISCID=7b0b060a
DTITLE=Various Artist - Funk Classics of Soul
DYEAR=1900
DGENRE=
TTITLE0=Get the funk out of my face-The Brothers Johnson
TTITLE1=fire-Ohio Players
TTITLE2=Shake your pants (Live)-Cameo
TTITLE3=The Grooveline-Heatwave
TTITLE4=Flashlight-George Clinton     
TTITLE5=Don't stop the music-Yarbrough and Peoples
TTITLE6=Burn Rubber *Live) The Gap Band
TTITLE7=Let it whip (Live)-The Dazz Band
TTITLE8=Freakshow on the dance floor
TTITLE9=Get up like a sex machine-James Brown
EXTD=funk groves The definite rhtymn and blues collection
EXTT0=
EXTT1=
EXTT2=
EXTT3=
EXTT4=
EXTT5=
EXTT6=
EXTT7=
EXTT8=
EXTT9=
PLAYORDER=
